PathFileType	4	(X/Y/Z)	Kaydara																																																																																																																									
DataRate	CameraRate	NumFrames	NumMarkers	Units	OrigDataRate	OrigDataStartFrame	OrigNumFrames																																																																																																																					
30	30	6	41	mm	30	119	141																																																																																																																					
Frame#	Time	SALE_LFHD			SALE_RFHD			SALE_LBHD			SALE_RBHD			SALE_LFTShould			SALE_RFTShould			SALE_LRRShould			SALE_RRRShould			SALE_T10			SALE_STRN			SALE_TRUN			SALE_LSHO			SALE_LUPA			SALE_LELB			SALE_LFRM			SALE_LWRA			SALE_LWRB			SALE_LFIN			SALE_RSHO			SALE_RUPA			SALE_RELB			SALE_RFRM			SALE_RWRB			SALE_RFIN			SALE_LFWT			SALE_RFWT			SALE_LBWT			SALE_RBWT			SALE_LTHI			SALE_LKNE			SALE_RWRA			SALE_LSHN			SALE_LANK			SALE_LHEE			SALE_LTOE			SALE_RTHI			SALE_RKNE			SALE_RSHN			SALE_RANK			SALE_RHEE			SALE_RTOE		
		X1	Y1	Z1	X2	Y2	Z2	X3	Y3	Z3	X4	Y4	Z4	X5	Y5	Z5	X6	Y6	Z6	X7	Y7	Z7	X8	Y8	Z8	X9	Y9	Z9	X10	Y10	Z10	X11	Y11	Z11	X12	Y12	Z12	X13	Y13	Z13	X14	Y14	Z14	X15	Y15	Z15	X16	Y16	Z16	X17	Y17	Z17	X18	Y18	Z18	X19	Y19	Z19	X20	Y20	Z20	X21	Y21	Z21	X22	Y22	Z22	X23	Y23	Z23	X24	Y24	Z24	X25	Y25	Z25	X26	Y26	Z26	X27	Y27	Z27	X28	Y28	Z28	X29	Y29	Z29	X30	Y30	Z30	X31	Y31	Z31	X32	Y32	Z32	X33	Y33	Z33	X34	Y34	Z34	X35	Y35	Z35	X36	Y36	Z36	X37	Y37	Z37	X38	Y38	Z38	X39	Y39	Z39	X40	Y40	Z40	X41	Y41	Z41
																																																																																																																												
89	3.933	180.43985	1606.24664	-58.3443	47.36466	1607.31903	-50.67	167.88391	1584.09561	-190.35408	41.19247	1583.86932	-176.86605	186.58148	1348.97537	-76.70126	43.55055	1350.59906	-64.62541	165.43266	1390.33554	-196.55302	19.60368	1399.56802	-178.45694	81.50389	1235.0174	-237.2002	112.01275	1285.41367	-11.35862	110.10284	1202.03094	37.09454	286.78541	1365.92804	-167.55672	310.35027	1175.62263	-247.34911	289.40849	1072.56599	-284.76469	331.06129	977.48062	-323.89954	324.75716	810.81497	-299.68845	348.1554	838.55957	-367.55459	374.64935	782.64038	-357.7636	-68.0376	1376.86066	-124.35946	-116.26405	1142.94365	-154.73928	-147.07216	1052.39204	-88.0256	-136.71859	941.29936	-52.70264	-135.5659	835.92346	51.2545	-139.72837	833.04443	119.44543	225.67747	933.03123	-46.37119	-50.75689	915.10284	-74.44643	183.9036	979.08005	-219.97347	9.40535	980.52414	-235.30745	228.42884	611.22944	-84.55866	193.87745	497.71477	66.22949	-88.46178	877.66762	91.54154	183.96265	288.73493	96.67031	179.17709	101.55937	68.74321	143.45592	50.04322	5.41436	148.41928	65.45955	198.87402	-27.17894	680.58769	-256.62466	-20.99812	501.86432	-180.21202	31.91058	330.16392	-309.02678	-16.2697	201.41743	-535.06618	19.19881	61.41552	-517.33593	26.11974	224.05849	-621.21212
90	3.967	182.67248	1614.30237	-5.13944	49.82856	1613.58047	3.3536	169.5228	1587.37335	-136.35211	42.91951	1585.79575	-121.83352	190.22608	1353.38898	-18.78102	48.83399	1355.27573	-5.33482	168.1975	1396.16852	-137.49344	23.12875	1407.23648	-118.45961	82.63174	1242.76848	-181.5172	115.73377	1290.66574	47.14036	113.01203	1205.4393	92.62327	289.7496	1370.63309	-110.06542	313.49276	1176.86989	-185.11976	292.56712	1072.81044	-218.41776	335.64499	975.45654	-251.7194	329.64943	810.61897	-218.23509	354.43829	834.33731	-287.55487	380.99701	778.68279	-272.67075	-63.69354	1384.60724	-63.6868	-110.26183	1155.84251	-105.67338	-142.38749	1060.1619	-45.70818	-133.476	945.49942	-18.30434	-135.06564	831.13007	75.94108	-144.13826	822.17514	142.43791	227.28998	942.4604	8.53458	-48.63481	914.41551	-16.94363	181.21826	986.34384	-166.18027	7.05786	978.05489	-181.16146	236.94611	620.2924	-37.52966	197.0137	496.88225	99.87338	-91.2851	869.64302	122.59534	184.0361	285.72496	116.76727	180.40876	100.20402	74.62875	145.57662	51.17068	7.21871	146.42047	61.55445	203.90024	-21.65336	658.87482	-176.75367	-19.45543	493.06919	-79.51692	32.94814	326.0936	-210.74677	-18.06431	230.66921	-452.42661	3.90351	84.66026	-466.75106	28.79558	265.85943	-529.4014
91	4	184.41608	1622.83401	48.48827	51.61093	1621.82327	57.64113	170.73746	1591.2709	-81.72507	44.25298	1589.65927	-66.48671	191.21948	1357.16095	39.75091	49.47768	1360.50415	51.41172	172.67052	1403.84491	-78.97893	26.52856	1414.35303	-59.6417	86.36972	1250.83458	-125.38042	116.13841	1292.50732	103.68584	112.01756	1206.53641	147.24574	293.78475	1375.07034	-49.03854	320.23026	1176.17126	-117.35851	299.1748	1071.21986	-148.20162	341.75793	971.6877	-174.38763	333.78731	810.09552	-130.89075	360.45174	827.81845	-201.10971	386.89411	774.1423	-180.15228	-61.63465	1389.91196	-6.93504	-111.27051	1161.72035	-55.42425	-140.10378	1063.35861	-2.15761	-132.58436	948.20496	14.45356	-137.56683	825.72281	96.83493	-147.55426	808.73596	161.02871	227.69682	950.31677	61.56024	-47.44069	913.82652	36.01318	180.74347	994.26132	-114.26005	5.00336	974.89845	-130.45622	239.72769	628.74001	-7.76159	198.02755	492.81704	119.33391	-93.80939	858.23273	148.13901	186.45071	283.51757	124.1786	180.53566	100.09401	74.92692	145.0905	51.33771	7.09301	146.49887	61.35484	203.89591	-14.62751	646.00967	-94.34261	-19.69281	495.56568	25.51839	33.85612	328.90942	-100.63662	-11.44547	248.50725	-348.18577	-2.81031	104.84522	-353.40363	41.28855	278.88636	-424.66759
92	4.033	185.32156	1630.69901	102.67451	52.5648	1630.29861	112.30906	171.13184	1596.51611	-26.74969	44.90875	1595.58853	-11.42513	190.42522	1361.18744	97.76076	48.78204	1363.84277	107.8836	175.69592	1411.87378	-20.70582	28.82326	1422.00745	-3.10881	90.70786	1259.62494	-71.46586	114.05308	1295.04501	158.11101	108.70769	1209.56146	201.9034	296.56727	1380.82657	12.21209	328.47458	1176.20934	-45.7145	307.89518	1070.16731	-74.56867	349.35596	968.66318	-90.57243	336.973	811.58035	-36.87418	367.52613	822.3613	-106.74985	392.83306	771.38466	-79.03238	-60.66526	1395.48019	47.03287	-108.48701	1168.79974	-10.19715	-138.75434	1068.61191	39.85029	-133.30294	953.01903	45.05694	-143.65784	823.51616	113.62641	-150.11116	797.29782	175.2022	227.60231	957.41379	111.49559	-46.41075	921.51703	87.28395	179.80127	1004.25423	-63.31167	4.95381	982.40372	-79.45919	239.6595	637.62897	16.76889	203.68624	491.92863	130.52645	-96.37084	847.76451	167.36876	191.42389	282.23215	127.21726	181.74347	100.00641	74.15256	145.01155	50.99765	6.31905	148.47733	61.65275	202.70033	-15.07479	651.31821	-15.14777	-20.98352	512.93034	127.68029	34.00151	337.70176	15.87394	-6.88199	245.9557	-227.2994	-9.16547	104.47975	-215.84337	51.0185	263.82008	-307.11809
93	4.067	185.3277	1636.82541	157.29491	52.65122	1637.13577	167.2953	170.72237	1601.82175	28.27217	44.58489	1601.50513	43.86809	188.3503	1366.85516	154.11995	46.89811	1369.65225	160.34212	177.3168	1419.74655	36.35342	30.28755	1428.73611	50.01403	94.79954	1267.79564	-18.96304	110.99308	1300.19104	211.28424	104.99472	1214.6347	254.85832	297.60042	1388.8382	72.90915	333.72532	1180.28923	26.50408	315.20216	1072.50923	1.97967	357.14684	969.35524	-1.96691	339.06021	817.8418	63.46856	376.03725	822.15675	-4.14116	398.06541	773.71841	30.67829	-60.47164	1401.69418	97.49597	-101.98646	1176.99249	31.63479	-135.385	1076.37863	76.98619	-133.12148	961.008	73.29282	-149.11934	826.0096	127.78658	-152.88297	790.11909	185.05991	229.97248	961.34277	160.80893	-45.75286	932.87216	138.62047	180.05384	1010.9864	-11.48055	6.21532	993.85872	-27.18606	238.57359	645.29289	39.83917	207.71147	489.42101	140.50037	-98.92269	841.06918	181.77061	192.40286	281.30047	133.22112	182.78534	100.1953	74.71682	145.82892	51.06082	6.01312	149.39561	61.72538	202.49193	-19.44456	662.02049	59.64788	-23.094	538.74851	220.22249	30.41139	348.95859	131.98696	-4.49589	224.94976	-98.61394	-8.42582	94.71444	-54.76947	53.43265	225.69662	-182.40843
94	4.1	184.53442	1638.58078	212.12856	51.97429	1639.37042	222.43637	169.73017	1604.27231	82.85203	43.47982	1604.21478	98.97976	186.19593	1371.76987	208.69577	45.13773	1373.36411	211.31628	178.42701	1423.86627	91.74269	31.66026	1431.76132	101.40643	99.57489	1271.72142	33.66256	108.2563	1305.11093	263.62274	102.35926	1219.17618	306.57749	298.02795	1395.60165	132.13747	338.15163	1185.37148	97.933	321.74648	1075.91904	78.26853	364.77413	972.26059	89.2372	339.47086	827.27875	166.48932	384.49619	825.81978	103.8554	401.38496	780.61897	146.21786	-60.4531	1405.30579	146.07347	-97.96068	1183.32901	73.98196	-132.83098	1081.89857	113.67763	-131.61853	968.11813	100.5554	-153.81909	829.66972	141.15689	-157.45506	785.21889	192.99564	233.76024	959.39743	210.03981	-43.5251	940.82191	193.84254	179.24835	1012.57919	40.62795	6.28759	1000.11574	26.5909	234.25457	650.23697	64.06146	208.39037	485.40401	149.63989	-103.32228	836.40869	195.8531	192.83228	280.88751	136.5639	182.09881	100.93683	74.77731	144.90152	52.49464	6.10705	148.78252	61.48744	202.78439	-31.50867	673.47427	129.3369	-23.16609	563.6898	304.12857	29.59681	359.16901	245.04305	-4.42272	192.74826	41.31293	-9.318	80.52196	115.21341	53.41167	172.57235	-41.74138
